<svg width="5" height="5" viewBox="0 0 5 5" fill="none" xmlns="http://www.w3.org/2000/svg">
<path fill-rule="evenodd" clip-rule="evenodd" d="M2.44718 0.236465C1.91597 0.236465 1.48572 0.681557 1.48572 1.23108C1.48572 1.78061 1.91597 2.2257 2.44718 2.2257C2.97839 2.2257 3.40865 1.78061 3.40865 1.23108C3.40865 0.681557 2.97839 0.236465 2.44718 0.236465ZM2.92783 1.23109C2.92783 0.95757 2.7115 0.733781 2.4471 0.733781C2.18269 0.733781 1.96636 0.95757 1.96636 1.23109C1.96636 1.50461 2.18269 1.7284 2.4471 1.7284C2.7115 1.7284 2.92783 1.50461 2.92783 1.23109ZM3.88935 3.71763C3.84128 3.54109 3.09614 3.22032 2.44716 3.22032C1.80057 3.22032 1.06024 3.5386 1.00496 3.71763H3.88935ZM0.5242 3.71764C0.5242 3.05622 1.80535 2.72302 2.44713 2.72302C3.08891 2.72302 4.37006 3.05622 4.37006 3.71764V4.21495H0.5242V3.71764Z" fill="white"/>
</svg>
