<svg width="5" height="6" viewBox="0 0 5 6" fill="none" xmlns="http://www.w3.org/2000/svg">
<path d="M4.81897 2.97703C4.62516 2.56871 4.39452 2.23571 4.12705 1.97802L3.84653 2.25853C4.07528 2.47714 4.27453 2.76311 4.44682 3.11927C3.98811 4.06866 3.33699 4.51965 2.44715 4.51965C2.18005 4.51965 1.93402 4.47852 1.70908 4.39626L1.40513 4.70021C1.71755 4.84447 2.06489 4.91661 2.44715 4.91661C3.5068 4.91661 4.29741 4.36472 4.81897 3.26096C4.83994 3.21657 4.85081 3.16809 4.85081 3.11899C4.85081 3.0699 4.83994 3.02142 4.81897 2.97703ZM4.46849 1.20924L4.23346 0.973934C4.22936 0.969833 4.2245 0.96658 4.21914 0.964361C4.21379 0.962141 4.20805 0.960999 4.20225 0.960999C4.19646 0.960999 4.19072 0.962141 4.18536 0.964361C4.18001 0.96658 4.17514 0.969833 4.17105 0.973934L3.56806 1.57665C3.2356 1.40684 2.86197 1.32193 2.44715 1.32193C1.38749 1.32193 0.596883 1.87382 0.0753243 2.97758C0.0543601 3.02197 0.0434875 3.07045 0.0434875 3.11955C0.0434875 3.16864 0.0543601 3.21712 0.0753243 3.26151C0.28369 3.70037 0.534546 4.05214 0.82789 4.31681L0.244472 4.90007C0.236207 4.90834 0.231564 4.91955 0.231564 4.93124C0.231564 4.94294 0.236207 4.95415 0.244472 4.96242L0.479835 5.19778C0.488106 5.20605 0.49932 5.21069 0.511013 5.21069C0.522706 5.21069 0.53392 5.20605 0.542191 5.19778L4.46849 1.27165C4.47259 1.26756 4.47584 1.26269 4.47806 1.25734C4.48028 1.25198 4.48142 1.24624 4.48142 1.24045C4.48142 1.23465 4.48028 1.22891 4.47806 1.22356C4.47584 1.2182 4.47259 1.21334 4.46849 1.20924ZM0.447472 3.11927C0.90673 2.16988 1.55785 1.71889 2.44715 1.71889C2.74784 1.71889 3.02125 1.7705 3.26929 1.87541L2.88171 2.263C2.69815 2.16506 2.48798 2.12872 2.28219 2.15932C2.07641 2.18992 1.88591 2.28586 1.73879 2.43297C1.59168 2.58008 1.49575 2.77058 1.46514 2.97637C1.43454 3.18215 1.47089 3.39233 1.56882 3.57588L1.1089 4.0358C0.854354 3.81113 0.634924 3.50674 0.447472 3.11927ZM1.8076 3.11927C1.8077 3.02205 1.83073 2.92623 1.87482 2.83958C1.91891 2.75293 1.98281 2.67791 2.06134 2.6206C2.13987 2.56329 2.23082 2.52531 2.32678 2.50975C2.42275 2.4942 2.52103 2.50149 2.61365 2.53106L1.83688 3.30783C1.81741 3.24687 1.80753 3.18326 1.8076 3.11927Z" fill="white"/>
</svg>
